<svg width="17" height="17" viewBox="0 0 17 17" fill="none" xmlns="http://www.w3.org/2000/svg">
<path d="M13.6516 0.0999756H3.34844C1.55687 0.0999756 0.0999985 1.55628 0.0999985 3.34715V6.77799V13.6528C0.0999985 15.4437 1.55687 16.9 3.34844 16.9H13.6516C15.4431 16.9 16.9 15.4437 16.9 13.6528V6.77143V3.34058C16.8934 1.55628 15.4366 0.0999756 13.6516 0.0999756ZM14.5834 2.03516H14.9575V2.40251V4.88217L12.1159 4.88873L12.1094 2.04172L14.5834 2.03516ZM6.09812 6.77143C6.63625 6.03016 7.50906 5.53816 8.49343 5.53816C9.47781 5.53816 10.3506 6.0236 10.8887 6.77143C11.2431 7.25687 11.4466 7.85382 11.4466 8.4967C11.4466 10.1236 10.1209 11.4552 8.48687 11.4552C6.85281 11.4552 5.54031 10.1236 5.54031 8.4967C5.54031 7.85382 5.75031 7.25687 6.09812 6.77143ZM15.2594 13.6462C15.2594 14.5318 14.5375 15.2534 13.6516 15.2534H3.34844C2.4625 15.2534 1.74062 14.5318 1.74062 13.6462V6.77143H4.2475C4.03094 7.30279 3.90625 7.88662 3.90625 8.4967C3.90625 11.0288 5.96687 13.0887 8.5 13.0887C11.0331 13.0887 13.0937 11.0288 13.0937 8.4967C13.0937 7.88662 12.9691 7.30279 12.7525 6.77143H15.2594V13.6462Z" fill="#7572D5"/>
</svg>
